<svg version="1.1" class="highcharts-root" style="font-family:;font-size:12px;" xmlns="http://www.w3.org/2000/svg" width="1801" height="449" viewBox="0 0 1801 449"><desc>Created with Highstock 6.0.4</desc><defs><clipPath id="highcharts-9otn9ss-1"><rect x="0" y="0" width="1702" height="379" fill="none"></rect></clipPath><clipPath id="highcharts-9otn9ss-2"><rect x="0" y="0" width="1702" height="379" fill="none"></rect></clipPath></defs><rect fill="#ffffff" class="highcharts-background" x="0" y="0" width="1801" height="449" rx="0" ry="0"></rect><rect fill="none" class="highcharts-plot-background" x="89" y="10" width="1702" height="379"></rect><g class="highcharts-pane-group"></g><g class="highcharts-grid highcharts-xaxis-grid "><path fill="none" class="highcharts-grid-line" d="M 301.5 10 L 301.5 389" opacity="1"></path><path fill="none" class="highcharts-grid-line" d="M 514.5 10 L 514.5 389" opacity="1"></path><path fill="none" class="highcharts-grid-line" d="M 726.5 10 L 726.5 389" opacity="1"></path><path fill="none" class="highcharts-grid-line" d="M 939.5 10 L 939.5 389" opacity="1"></path><path fill="none" class="highcharts-grid-line" d="M 1152.5 10 L 1152.5 389" opacity="1"></path><path fill="none" class="highcharts-grid-line" d="M 1365.5 10 L 1365.5 389" opacity="1"></path><path fill="none" class="highcharts-grid-line" d="M 1577.5 10 L 1577.5 389" opacity="1"></path><path fill="none" class="highcharts-grid-line" d="M 1790.5 10 L 1790.5 389" opacity="1"></path><path fill="none" class="highcharts-grid-line" d="M 88.5 10 L 88.5 389" opacity="1"></path></g><g class="highcharts-grid highcharts-yaxis-grid "><path fill="none" stroke="#e6e6e6" stroke-width="1" stroke-dasharray="4,3" class="highcharts-grid-line" d="M 89 389.5 L 1791 389.5" opacity="1"></path><path fill="none" stroke="#e6e6e6" stroke-width="1" stroke-dasharray="4,3" class="highcharts-grid-line" d="M 89 326.5 L 1791 326.5" opacity="1"></path><path fill="none" stroke="#e6e6e6" stroke-width="1" stroke-dasharray="4,3" class="highcharts-grid-line" d="M 89 263.5 L 1791 263.5" opacity="1"></path><path fill="none" stroke="#e6e6e6" stroke-width="1" stroke-dasharray="4,3" class="highcharts-grid-line" d="M 89 200.5 L 1791 200.5" opacity="1"></path><path fill="none" stroke="#e6e6e6" stroke-width="1" stroke-dasharray="4,3" class="highcharts-grid-line" d="M 89 136.5 L 1791 136.5" opacity="1"></path><path fill="none" stroke="#e6e6e6" stroke-width="1" stroke-dasharray="4,3" class="highcharts-grid-line" d="M 89 73.5 L 1791 73.5" opacity="1"></path><path fill="none" stroke="#e6e6e6" stroke-width="1" stroke-dasharray="4,3" class="highcharts-grid-line" d="M 89 9.5 L 1791 9.5" opacity="1"></path></g><rect fill="none" class="highcharts-plot-border" x="89" y="10" width="1702" height="379"></rect><g class="highcharts-axis highcharts-xaxis "><path fill="none" class="highcharts-axis-line" stroke="#ccd6eb" stroke-width="1" d="M 89 389.5 L 1791 389.5"></path></g><g class="highcharts-axis highcharts-yaxis "><path fill="none" class="highcharts-axis-line" d="M 89 10 L 89 389"></path></g><g class="highcharts-series-group"><g class="highcharts-series highcharts-series-0 highcharts-column-series cP highcharts-tracker " transform="translate(89,10) scale(1 1)" clip-path="url(#highcharts-9otn9ss-2)"><rect x="10.5" y="63.5" width="191" height="316" fill="#ffa500" stroke="#ffffff" stroke-width="1" class="highcharts-point"></rect><rect x="222.5" y="253.5" width="192" height="126" fill="#ffa500" stroke="#ffffff" stroke-width="1" class="highcharts-point"></rect><rect x="435.5" y="291.5" width="192" height="88" fill="#ffa500" stroke="#ffffff" stroke-width="1" class="highcharts-point "></rect><rect x="648.5" y="246.5" width="191" height="133" fill="#ffa500" stroke="#ffffff" stroke-width="1" class="highcharts-point "></rect><rect x="861.5" y="347.5" width="191" height="32" fill="#ffa500" stroke="#ffffff" stroke-width="1" class="highcharts-point"></rect><rect x="1073.5" y="291.5" width="192" height="88" fill="#ffa500" stroke="#ffffff" stroke-width="1" class="highcharts-point"></rect><rect x="1286.5" y="322.5" width="192" height="57" fill="#ffa500" stroke="#ffffff" stroke-width="1" class="highcharts-point"></rect><rect x="1499.5" y="335.5" width="191" height="44" fill="#ffa500" stroke="#ffffff" stroke-width="1" class="highcharts-point"></rect></g><g class="highcharts-markers highcharts-series-0 highcharts-column-series cP " transform="translate(89,10) scale(1 1)" clip-path="none"></g></g><text x="901" text-anchor="middle" class="highcharts-title" style="color:#333333;font-size:18px;fill:#333333;" y="24"></text><text x="901" text-anchor="middle" class="highcharts-subtitle" style="color:#666666;fill:#666666;" y="24"></text><g class="highcharts-data-labels highcharts-series-0 highcharts-column-series cP highcharts-tracker " transform="translate(89,10) scale(1 1)" opacity="1" visibility="visible"><g class="highcharts-label highcharts-data-label highcharts-data-label-color-undefined highcharts-tracker" transform="translate(64,38)"></g><g class="highcharts-label highcharts-data-label highcharts-data-label-color-undefined highcharts-tracker" transform="translate(277,228)"></g><g class="highcharts-label highcharts-data-label highcharts-data-label-color-undefined highcharts-tracker" transform="translate(493,266)"></g><g class="highcharts-label highcharts-data-label highcharts-data-label-color-undefined highcharts-tracker" transform="translate(702,221)"></g><g class="highcharts-label highcharts-data-label highcharts-data-label-color-undefined highcharts-tracker" transform="translate(919,322)"></g><g class="highcharts-label highcharts-data-label highcharts-data-label-color-undefined highcharts-tracker" transform="translate(1131,266)"></g><g class="highcharts-label highcharts-data-label highcharts-data-label-color-undefined highcharts-tracker" transform="translate(1344,297)"></g><g class="highcharts-label highcharts-data-label highcharts-data-label-color-undefined highcharts-tracker" transform="translate(1557,310)"></g></g><g class="highcharts-axis-labels highcharts-xaxis-labels "></g><g class="highcharts-axis-labels highcharts-yaxis-labels "><text x="74" style="color:#666;cursor:default;font-size:0.79rem;font-family:ProximaNovaRegular, sans-serif;font-weight:normal;fill:#666;" text-anchor="end" transform="translate(0,0)" y="392" opacity="1"><tspan>0</tspan></text><text x="74" style="color:#666;cursor:default;font-size:0.79rem;font-family:ProximaNovaRegular, sans-serif;font-weight:normal;fill:#666;" text-anchor="end" transform="translate(0,0)" y="328" opacity="1"><tspan>50k</tspan></text><text x="74" style="color:#666;cursor:default;font-size:0.79rem;font-family:ProximaNovaRegular, sans-serif;font-weight:normal;fill:#666;" text-anchor="end" transform="translate(0,0)" y="265" opacity="1"><tspan>100k</tspan></text><text x="74" style="color:#666;cursor:default;font-size:0.79rem;font-family:ProximaNovaRegular, sans-serif;font-weight:normal;fill:#666;" text-anchor="end" transform="translate(0,0)" y="202" opacity="1"><tspan>150k</tspan></text><text x="74" style="color:#666;cursor:default;font-size:0.79rem;font-family:ProximaNovaRegular, sans-serif;font-weight:normal;fill:#666;" text-anchor="end" transform="translate(0,0)" y="139" opacity="1"><tspan>200k</tspan></text><text x="74" style="color:#666;cursor:default;font-size:0.79rem;font-family:ProximaNovaRegular, sans-serif;font-weight:normal;fill:#666;" text-anchor="end" transform="translate(0,0)" y="76" opacity="1"><tspan>250k</tspan></text><text x="74" style="color:#666;cursor:default;font-size:0.79rem;font-family:ProximaNovaRegular, sans-serif;font-weight:normal;fill:#666;" text-anchor="end" transform="translate(0,0)" y="13" opacity="1"><tspan>300k</tspan></text></g><g class="highcharts-legend"><rect fill="none" class="highcharts-legend-box" rx="0" ry="0" x="0" y="0" width="1809" height="8" visibility="hidden"></rect><g><g></g></g></g><g class="highcharts-label highcharts-tooltip highcharts-color-undefined" style="cursor:default;pointer-events:none;white-space:nowrap;padding:0;" transform="translate(536,-9999)" opacity="0" visibility="visible"><path fill="#fff" class="highcharts-label-box highcharts-tooltip-box" d="M 3 0 L 144 0 C 147 0 147 0 147 3 L 147 52 C 147 55 147 55 144 55 L 3 55 C 0 55 0 55 0 52 L 0 3 C 0 0 0 0 3 0" stroke="#ffa500" stroke-width="2"></path></g></svg>